<?xml version="1.0" encoding="UTF-8"?><svg xmlns="http://www.w3.org/2000/svg" xmlns:xlink="http://www.w3.org/1999/xlink" height="480.6" preserveAspectRatio="xMidYMid meet" version="1.0" viewBox="-0.0 -0.4 501.0 480.6" width="501.0" zoomAndPan="magnify"><g id="change1_1"><path d="M475.10699,196.05217V86.22038c0-10.53369,.24359-21.12463,.29889-31.70306,5.72943-.01935,11.45306-.10168,17.16107-.3194,.28088-.01074,.56415,0,.8454,0,2.32422,0,4.08911-.86572,5.30743-2.17645,1.36774-1.22009,2.27606-3.01935,2.27606-5.40704V7.91539c0-4.09949-3.47449-7.5835-7.5835-7.5835H67.35004C47.76154,.3319,28.00739-.41487,8.42883,.3319c-.28088,.01074-.56415,0-.8454,0C3.48395,.3319,0,3.80638,0,7.91539V46.61443c0,4.09949,3.47443,7.5835,7.58344,7.5835H25.88885V417.8557c0,2.5556-.0166,5.11523-.03955,7.67664-5.8161,.01746-11.62634,.09888-17.42047,.31989-.28088,.01068-.56415,0-.8454,0-4.09949,0-7.58344,3.47449-7.58344,7.5835v38.69904c0,4.09949,3.47443,7.5835,7.58344,7.5835H414.21387c14.72229,0,29.56262,.49457,44.31635,.22839,11.36041,.13348,22.72778,.20294,34.03674-.22839,.28088-.01074,.56415,0,.8454,0,2.32397,0,4.08868-.8656,5.30701-2.17609,1.36792-1.22009,2.27649-3.01947,2.27649-5.40741v-38.69904c0-4.09949-3.47449-7.5835-7.5835-7.5835h-18.30536V196.05217Zm10.72186,268.49908H27.52875c-.61035,0-1.22754-.0105-1.84515-.02142-3.45367-.06097-7.00403-.2547-10.51666-.26984v-23.24084H473.46704c.54248,0,1.09167,.01025,1.63995,.01904,3.51825,.05634,7.13934,.25677,10.72186,.27222v23.24084Zm-25.88885-388.62445V417.8557c0,2.66199-.01831,5.32837-.04291,7.99652H67.35004c-8.74182,0-17.51678-.146-26.29425-.24432V54.19792H433.64575c8.74182,0,17.51678,.146,26.29425,.24432v21.48456ZM15.16693,15.49889H473.46704c4.02362,0,8.22101,.27344,12.36182,.29126v23.24084H27.52875c-.54248,0-1.09167-.01025-1.63989-.01904-3.51825-.05634-7.1394-.25677-10.72192-.27222V15.49889Z" fill="#11171d"/></g><g id="change1_2"><path d="M425.77979,67.75432H118.5697c-14.20166,0-28.56512-.6283-42.75702,0-.19806,.00873-.39832,0-.59662,0-4.09949,0-7.5835,3.47443-7.5835,7.58344V403.90691c0,4.09949,3.47449,7.58344,7.5835,7.58344H248.44226c1.34332,.32782,2.77887,.32819,4.1217,0h129.86212c14.20172,0,28.56512,.6283,42.75708,0,.198-.00873,.39825,0,.59662,0,2.32422,0,4.08905-.86572,5.30737-2.17645,1.36768-1.22003,2.27606-3.01929,2.27606-5.40698V75.33775c0-4.09949-3.47443-7.58344-7.58344-7.58344Zm-118.6701,328.56909h-49.02832V247.77013h156.64258c1.34479,0,2.49768-.29572,3.47235-.79236v149.34564h-111.08661Zm-12.13477-313.40216h116.45068c2.19684,0,4.48438,.12909,6.77069,.19727V233.39342c-.97443-.4953-2.12726-.79022-3.47235-.79022h-156.64258V82.92125h36.89355Zm-101.08881,0h49.02832V232.6032H86.27191c-1.34485,0-2.49774,.29578-3.47241,.79242V82.92125h111.08661Zm-111.08661,209.38641v-45.32776c.97443,.4953,2.12726,.79022,3.47241,.79022H242.91443v148.55328H89.57019c-2.19684,0-4.48438-.12915-6.77069-.19733v-103.81842Z" fill="#11171d"/></g></svg>