<?xml version="1.0" encoding="UTF-8"?><svg xmlns="http://www.w3.org/2000/svg" xmlns:xlink="http://www.w3.org/1999/xlink" height="353.4" preserveAspectRatio="xMidYMid meet" version="1.0" viewBox="0.0 0.0 353.3 353.4" width="353.3" zoomAndPan="magnify"><g fill="#717273" id="change1_1"><path d="M123.73,40.683c45.869,0,83.053,37.177,83.053,83.024c0,45.884-37.184,83.089-83.053,83.089 s-83.046-37.198-83.046-83.089C40.684,77.86,77.861,40.683,123.73,40.683 M123.73,0C55.512,0,0,55.511,0,123.708 c0,68.246,55.512,123.729,123.729,123.729c68.225,0,123.715-55.49,123.715-123.729C247.445,55.511,191.954,0,123.73,0L123.73,0z" fill="inherit"/><path d="M316.091,353.368c-8.692,0-17.335-3.301-23.963-9.929l-60.168-60.183c-13.25-13.228-13.25-34.655,0-47.934 c13.249-13.234,34.684-13.234,47.933,0l60.169,60.19c13.249,13.242,13.249,34.684,0,47.926 C333.441,350.067,324.791,353.368,316.091,353.368z" fill="inherit"/><path d="M198.232 204.655H244.974V245.34199999999998H198.232z" fill="inherit" transform="rotate(44.984 221.6 224.981)"/></g></svg>