<?xml version="1.0" encoding="UTF-8"?><svg xmlns="http://www.w3.org/2000/svg" xmlns:xlink="http://www.w3.org/1999/xlink" height="417.3" preserveAspectRatio="xMidYMid meet" version="1.0" viewBox="16.0 72.0 477.1 417.3" width="477.1" zoomAndPan="magnify"><g id="change1_1"><path d="M144,208.6v30.9c0,4.4,3.6,8,8,8h64.6c-0.4,3.6-0.6,7.3-0.6,11v32c0,4.4,3.6,8,8,8h176c4.4,0,8-3.6,8-8v-32 c0-3.7-0.2-7.4-0.6-11H472c4.4,0,8-3.6,8-8v-30.9c0-30.1-19.6-55.6-46.7-64.6c7.6-7.6,12.2-18.1,12.2-29.7 c0-23.3-19-42.3-42.3-42.3c-22.8,0-41.4,18.1-42.3,40.6C355.3,89.3,334.3,72,309.3,72c-23.7,0-43.8,15.5-50.7,37 c-2.6-20.8-20.4-37-41.9-37c-23.3,0-42.3,19-42.3,42.3c0,12.1,5.1,23.1,13.4,30.8C162.2,154.9,144,179.7,144,208.6z M464,208.6 v22.9h-59.9c-7.1-24.2-23.5-44.5-45.1-56.7c9.8-11.5,24.2-18.3,39.6-18.3H412C440.7,156.6,464,179.9,464,208.6z M403.2,88 c14.5,0,26.3,11.8,26.3,26.3c0,14.5-11.8,26.3-26.3,26.3c-14.5,0-26.3-11.8-26.3-26.3C376.9,99.8,388.7,88,403.2,88z M362.5,125.7 c2.1,7.5,6.2,14.2,11.8,19.4c-11.9,4.6-22.4,12.4-30.2,22.9c-0.7-0.3-1.4-0.5-2.1-0.7C354.3,157.6,362.4,142.6,362.5,125.7z M309.3,88c20.5,0,37.3,16.7,37.3,37.3s-16.7,37.3-37.3,37.3S272,145.8,272,125.3S288.7,88,309.3,88z M312,178.5 c44.1,0,80,35.9,80,80v24H232v-24C232,214.4,267.9,178.5,312,178.5z M256.2,129.2c0.6,8.3,3.1,16.1,7.1,22.9 c-5.1-3.5-10.7-6.2-16.6-8.1C250.8,139.8,254.1,134.8,256.2,129.2z M216.6,88c14.5,0,26.3,11.8,26.3,26.3 c0,14.5-11.8,26.3-26.3,26.3c-14.5,0-26.3-11.8-26.3-26.3C190.3,99.8,202.1,88,216.6,88z M212,156.6h13.4 c15.4,0,29.7,6.7,39.6,18.3c-21.6,12.2-38,32.5-45.1,56.7H160v-22.9C160,179.9,183.3,156.6,212,156.6z"/><path d="M90.4,304H24c-4.4,0-8,3.6-8,8v148c0,4.4,3.6,8,8,8h66.4c4.4,0,8-3.6,8-8v-12.7h32l94.9,30.1c21.5,8,39.6,11.9,57.6,11.9 c18.1,0,36.2-4,57.8-12c0.8-0.3,1.6-0.7,2.3-1.3l139-113.4c0.4-0.4,0.8-0.8,1.2-1.2c9.9-12.3,9.4-31.1-1.2-42.8 c-10.5-11.7-27.4-12.9-39.2-2.7L373.4,372c0-0.7,0-1.4,0-2.1c-0.3-16.7-13.4-30.4-29.3-30.4h-77.1c-4.4,0-8.6-2.6-11.2-6.9 c-0.6-0.9-1.3-1.7-2.2-2.4c-32.7-23.7-74-28.2-110.3-12l-13.4,6H98.4V312C98.4,307.6,94.9,304,90.4,304z M56,440c-4.4,0-8-3.6-8-8 s3.6-8,8-8s8,3.6,8,8S60.4,440,56,440z M82.4,332.3v107V452H69.3c6.4-4.3,10.7-11.6,10.7-20c0-13.2-10.8-24-24-24s-24,10.8-24,24 c0,8.3,4.3,15.7,10.7,20H32v-20V320h50.4V332.3z M131.7,340.3c1.1,0,2.2-0.2,3.2-0.7l15-6.7c30.6-13.6,65.3-10,93.2,9.5 c5.6,8.3,14.4,13.1,24,13.1h77.1c7.2,0,13.2,6.6,13.3,14.6c0.1,4.5-1.5,8.7-4.4,11.6c-1.4,1.4-3.1,2.5-4.8,3.1 c-2.3,0.4-4.6,0.6-6.9,0.6h-85.8c-4.4,0-8,3.6-8,8s3.6,8,8,8h89.4c2.4,0,4.8-0.3,7.1-0.9c10-1.8,19.4-6.2,27.7-12.8l73.4-59.4 c0.1-0.1,0.1-0.1,0.2-0.2c5.2-4.5,12.3-3.9,17,1.2c5.2,5.7,5.6,15.2,1,21.5l-137.2,112c-38.8,14.2-64.1,14-103.2-0.5 c-0.1,0-0.2-0.1-0.4-0.1l-96.2-30.6c-0.8-0.2-1.6-0.4-2.4-0.4H98.4v-91H131.7z"/></g></svg>