<?xml version="1.0" encoding="UTF-8"?><svg xmlns="http://www.w3.org/2000/svg" xmlns:xlink="http://www.w3.org/1999/xlink" height="401.2" preserveAspectRatio="xMidYMid meet" version="1.0" viewBox="-0.1 -0.3 343.8 401.2" width="343.8" zoomAndPan="magnify"><g id="change1_1"><path d="M343.63,101.88c0-0.04,0-0.07-0.01-0.11c0-0.08-0.01-0.15-0.01-0.23c-0.01-0.14-0.01-0.27-0.03-0.4 c-0.01-0.06-0.02-0.12-0.03-0.19c-0.02-0.15-0.04-0.29-0.08-0.44c-0.01-0.04-0.02-0.09-0.03-0.13c-0.04-0.16-0.08-0.32-0.13-0.48 c-0.01-0.03-0.02-0.06-0.03-0.09c-0.06-0.17-0.12-0.34-0.19-0.5c-0.01-0.03-0.03-0.06-0.04-0.09c-0.08-0.16-0.16-0.32-0.24-0.48 c-0.01-0.01-0.01-0.02-0.02-0.03c-0.01-0.02-0.02-0.03-0.04-0.05c-0.12-0.2-0.24-0.39-0.38-0.57c-0.03-0.05-0.07-0.09-0.1-0.14 c-0.15-0.2-0.32-0.39-0.49-0.56c-0.03-0.03-0.07-0.06-0.1-0.09c-0.14-0.13-0.28-0.26-0.43-0.37c-0.1-0.08-0.19-0.15-0.29-0.22 c-0.08-0.06-0.16-0.11-0.24-0.16c-0.08-0.05-0.16-0.12-0.25-0.17L175.01,0.85c-2.04-1.18-4.48-1.1-6.38,0.01L3.16,96.4 c-2.16,1.25-3.3,3.58-3.15,5.91l0,190.66c0,2.19,1.14,4.33,3.18,5.5l164.95,95.23c0.02,0.01,0.03,0.02,0.05,0.03 c0.23,0.16,0.46,0.3,0.71,0.43c0.06,0.03,0.12,0.06,0.17,0.08c0.23,0.11,0.46,0.2,0.7,0.29c0.04,0.01,0.08,0.03,0.12,0.04 c0.27,0.09,0.55,0.15,0.83,0.2c0.07,0.01,0.14,0.02,0.21,0.03c0.29,0.04,0.59,0.07,0.89,0.07c0,0,0,0,0.01,0 c0.31,0,0.6-0.03,0.9-0.07c0.07-0.01,0.13-0.02,0.2-0.03c0.29-0.05,0.57-0.11,0.84-0.2c0.04-0.01,0.07-0.03,0.11-0.04 c0.24-0.08,0.48-0.18,0.71-0.29c0.06-0.03,0.11-0.05,0.17-0.08c0.25-0.13,0.48-0.27,0.71-0.43c0.02-0.01,0.03-0.02,0.05-0.03 l55.94-32.3c3.1,5.58,6.13,10.94,8.94,15.9c4.32,7.64,8.08,14.29,10.71,19.3c0.58,1.11,1.49,2.06,2.69,2.69 c3.1,1.62,6.93,0.42,8.55-2.69c2.61-4.97,6.35-11.59,10.65-19.2c9.55-16.91,21.77-38.54,30.3-57.47l37.18-21.46 c2.04-1.17,3.18-3.3,3.18-5.5L343.63,101.88z M171.82,190.1l-4.74-2.74L19.05,101.89l45.72-26.4l152.77,88.21l-18.74,10.82 L171.82,190.1z M116.67,45.53l152.77,88.2l-39.2,22.63L77.47,68.16L116.67,45.53z M237.67,167.25c12.71-7.36,25.4-14.77,38.09-22.18 v26.42l-38.09,21.99V167.25z M171.82,13.68l152.78,88.21l-42.48,24.52L129.34,38.21L171.82,13.68z M12.7,112.88l145.05,83.73 l7.71,4.45V377.5L12.69,289.3L12.7,112.88z M261.94,371.18l-5.23,9.28l-5.3-9.42c-15.7-27.77-38.84-68.69-38.84-84.81 c0-12.5,4.95-23.81,12.95-31.97h0c7.98-8.13,19.01-13.17,31.19-13.17c12.18,0,23.21,5.04,31.19,13.17 c8,8.16,12.95,19.46,12.95,31.97c0,5.9-3.13,15.17-7.86,25.9c-0.27,0.45-0.48,0.93-0.63,1.43 C284.17,331.83,271.62,354.04,261.94,371.18z M310.72,300.98c1.8-5.71,2.86-10.75,2.86-14.76c0-15.94-6.36-30.39-16.63-40.87 c-10.3-10.5-24.53-17-40.24-17c-15.71,0-29.94,6.5-40.24,17c-10.28,10.48-16.63,24.93-16.63,40.87l0,0 c0,13.91,12.43,39.82,25.5,64.05l-47.15,27.22V201.11c15.6-8.69,31.18-17.56,46.74-26.52v29.88c0,3.52,2.85,6.37,6.37,6.37 c1.37,0,2.64-0.43,3.68-1.17l50.3-29.04c2.04-1.17,3.18-3.3,3.18-5.5h0.03v-37.51c14.17-8.28,28.32-16.54,42.46-24.74l0.01,176.41 L310.72,300.98z M69.45,296.14c-1.74,3.03-5.62,4.08-8.66,2.34l-33.02-19.06c-3.03-1.74-4.08-5.62-2.34-8.66 c1.74-3.03,5.62-4.08,8.66-2.34l33.02,19.06C70.15,289.23,71.19,293.1,69.45,296.14z M256.71,257.44c-7.2,0-13.73,2.98-18.45,7.8 c-4.7,4.79-7.61,11.39-7.61,18.66c0,7.26,2.91,13.87,7.61,18.66c4.72,4.82,11.25,7.8,18.45,7.8c7.2,0,13.73-2.98,18.45-7.8 c4.7-4.79,7.61-11.39,7.61-18.66c0-7.26-2.91-13.87-7.61-18.66C270.44,260.42,263.91,257.44,256.71,257.44z M266.11,293.65 c-2.4,2.45-5.73,3.97-9.4,3.97c-3.67,0-7-1.52-9.4-3.97c-2.42-2.47-3.93-5.92-3.93-9.75s1.5-7.28,3.93-9.75 c2.4-2.45,5.73-3.97,9.4-3.97c3.67,0,7,1.52,9.4,3.97c2.43,2.47,3.93,5.92,3.93,9.75S268.54,291.17,266.11,293.65z"/></g></svg>