<?xml version="1.0" encoding="UTF-8"?><svg xmlns="http://www.w3.org/2000/svg" xmlns:xlink="http://www.w3.org/1999/xlink" height="30.4" preserveAspectRatio="xMidYMid meet" version="1.0" viewBox="6.2 15.2 53.9 30.4" width="53.9" zoomAndPan="magnify"><g><g fill="none" stroke="#000" stroke-miterlimit="10" stroke-width="2"><path d="M59.07,32.13v12.4H41.03V35.1h12.43c0.5,0,0.91-0.41,0.91-0.91c0-1.87,1.51-3.38,3.38-3.38 C58.48,30.81,59.07,31.4,59.07,32.13z"/><path d="M37.62,16.23H26.46c-10.65,0-19.29,8.63-19.29,19.28v5.67c0,1.89,1.53,3.42,3.42,3.42h30.44V19.64 C41.03,17.76,39.5,16.23,37.62,16.23z M12.64,41.63c-1.43,0-2.59-1.16-2.59-2.58c0-1.43,1.16-2.59,2.59-2.59 c1.42,0,2.58,1.16,2.58,2.59C15.22,40.47,14.06,41.63,12.64,41.63z M34.37,35.1c-1.44,2.7-4.24,4.57-7.49,4.7 c-0.12,0.01-0.24,0.01-0.36,0.01c-4.92,0-8.91-3.99-8.91-8.91s3.99-8.91,8.91-8.91s8.9,3.99,8.9,8.91 C35.42,32.42,35.04,33.85,34.37,35.1z" stroke-linecap="round" stroke-linejoin="round"/><path d="M15.22,39.05c0,1.42-1.16,2.58-2.58,2.58c-1.43,0-2.59-1.16-2.59-2.58c0-1.43,1.16-2.59,2.59-2.59 C14.06,36.46,15.22,37.62,15.22,39.05z" stroke-linecap="round" stroke-linejoin="round"/><path d="M55.12 42.06L55.12 44.53" stroke-linecap="round"/><path d="M50.38 40.91L50.38 44.53" stroke-linecap="round"/><path d="M45.64 42.06L45.64 44.53" stroke-linecap="round"/><path d="M40.89 40.91L40.89 44.53" stroke-linecap="round"/><path d="M35.42,30.9c0,1.52-0.38,2.95-1.05,4.2c-1.44,2.7-4.24,4.57-7.49,4.7c-0.12,0.01-0.24,0.01-0.36,0.01 c-4.92,0-8.91-3.99-8.91-8.91s3.99-8.91,8.91-8.91S35.42,25.98,35.42,30.9z" stroke-linecap="round" stroke-linejoin="round"/><path d="M15.22,39.05c0,1.42-1.16,2.58-2.58,2.58c-1.43,0-2.59-1.16-2.59-2.58c0-1.43,1.16-2.59,2.59-2.59 C14.06,36.46,15.22,37.62,15.22,39.05z"/></g></g></svg>