<?xml version="1.0" encoding="UTF-8"?><svg xmlns="http://www.w3.org/2000/svg" xmlns:xlink="http://www.w3.org/1999/xlink" height="500.0" preserveAspectRatio="xMidYMid meet" version="1.0" viewBox="0.0 0.0 500.0 500.0" width="500.0" zoomAndPan="magnify"><g fill="#070605" id="change1_1"><path d="M 425.855469 364.8125 C 425.855469 382.164062 411.746094 396.285156 394.398438 396.285156 L 105.605469 396.285156 C 88.257812 396.285156 74.148438 382.164062 74.148438 364.8125 L 74.148438 172.476562 C 74.148438 155.128906 88.257812 141.019531 105.605469 141.019531 L 149.816406 141.019531 L 172.292969 96.230469 L 327.703125 96.230469 L 350.179688 141.019531 L 394.398438 141.019531 C 411.746094 141.019531 425.855469 155.128906 425.855469 172.476562 Z M 250 0 C 111.929688 0 0 111.929688 0 250 C 0 388.070312 111.929688 500 250 500 C 388.070312 500 500 388.070312 500 250 C 500 111.929688 388.070312 0 250 0" fill="inherit"/><path d="M 250.011719 341.582031 C 199.507812 341.582031 158.421875 300.5 158.421875 250 C 158.421875 199.503906 199.507812 158.421875 250.011719 158.421875 C 300.5 158.421875 341.578125 199.503906 341.578125 250 C 341.578125 300.5 300.5 341.582031 250.011719 341.582031 Z M 307.136719 129.5625 L 192.859375 129.5625 L 170.386719 174.351562 L 107.480469 174.351562 L 107.480469 362.953125 L 392.523438 362.953125 L 392.523438 174.351562 L 329.609375 174.351562 L 307.136719 129.5625" fill="inherit"/><path d="M 250.011719 191.753906 C 217.886719 191.753906 191.753906 217.882812 191.753906 250 C 191.753906 282.117188 217.886719 308.25 250.011719 308.25 C 282.121094 308.25 308.246094 282.117188 308.246094 250 C 308.246094 217.882812 282.121094 191.753906 250.011719 191.753906" fill="inherit"/></g></svg>