<?xml version="1.0" encoding="UTF-8"?><svg xmlns="http://www.w3.org/2000/svg" xmlns:xlink="http://www.w3.org/1999/xlink" height="237.4" preserveAspectRatio="xMidYMid meet" version="1.0" viewBox="0.0 0.0 237.4 237.4" width="237.4" zoomAndPan="magnify"><g id="change1_1"><path d="M118.7,55.2C83.5,55.2,55,83.7,55,118.9c0,19,8.4,36.1,21.6,47.8v12c0,4.8,5.1,7.9,9.4,5.6l10.6-5.6c6.9,2.6,14.4,4,22.2,4 c35.2,0,63.7-28.5,63.7-63.7C182.4,83.7,153.9,55.2,118.7,55.2z M128.3,134.5c-1.6,1.7-4.2,1.7-5.9,0l-11.6-11.9 c-1.3-1.3-3.3-1.6-4.9-0.8l-29.4,15.7l32.2-34.2c1.6-1.7,4.2-1.7,5.9-0.1l12.3,12.5c1.3,1.3,3.3,1.6,4.9,0.7l29.1-16.3L128.3,134.5 z"/><path d="M118.7,237.4C53.3,237.4,0,184.2,0,118.7C0,53.3,53.3,0,118.7,0s118.7,53.3,118.7,118.7 C237.4,184.2,184.2,237.4,118.7,237.4z M118.7,6.5C56.8,6.5,6.5,56.8,6.5,118.7c0,61.9,50.3,112.2,112.2,112.2 s112.2-50.3,112.2-112.2C230.9,56.8,180.6,6.5,118.7,6.5z"/></g></svg>